<svg xmlns="http://www.w3.org/2000/svg" viewBox="0 0 209.5 115.6"><path fill="#7c8997" stroke="#000" stroke-linecap="round" stroke-linejoin="round" stroke-width="1.2" d="M148.7 112c7.5-1 6.3-1.7 6.3-4.5-.3-25-3.3-49.4-7-68.5-1.5-3.5-6-13.6-7.3-18.5-2.3-9.2-1-13.4-2.7-16.4C114.5-1 92-.2 70.2 4c-2.2 4.3.8 15.6-9.9 34.6-3.7 19-6.8 43.7-7 68.8 0 2.8-1.2 3.4 6.2 4.5 30 4.5 64 3.6 89.2 0z" paint-order="markers fill stroke" style="marker:none"/><path fill="#8b97a3" d="M73 69.3l-4.1 41.9c21.4 3.5 52.8 1.7 72 .4l-4.7-41.9-5.5-62.6-14.2-3.4c-7.9 3.9-15.8 4.8-23.7.6L79 8.3c-2.1 2.5-5.5 54-6 61z" paint-order="markers fill stroke" style="marker:none"/><g stroke="#000" stroke-linecap="round" stroke-linejoin="round" stroke-width=".8" transform="matrix(1.47032 0 0 1.4698 -1024.7 410.2)"><path fill="#5c676f" d="M733.6-229l68.7 2 .4 7.5-70-1.2z" paint-order="markers fill stroke" style="marker:none"/><rect width="1.8" height="2.2" x="782.1" y="-224.9" fill="#141416" paint-order="markers fill stroke" ry="1.1" style="marker:none"/><rect width="1.8" height="2.2" x="788.8" y="-224.7" fill="#141416" paint-order="markers fill stroke" ry="1.1" style="marker:none"/><path fill="#5c676f" d="M757.4-228.6c-4.5-.5-15.3 2-18.1 3l1.3 8.3a67.3 67.3 0 0 1 16.4-2.9" paint-order="markers fill stroke" style="marker:none"/><rect width="19.8" height="12.7" x="757.3" y="-230.7" fill="#b6bdc5" paint-order="markers fill stroke" ry="1.4" style="marker:none"/><rect width="14.6" height="9.1" x="760" y="-228.9" fill="#5c676f" paint-order="markers fill stroke" ry="1" style="marker:none"/><rect width="5" height="2.2" x="773.2" y="-225.5" fill="#b6bdc5" paint-order="markers fill stroke" ry="1.1" style="marker:none"/><rect width="1.8" height="2.2" x="767.4" y="-225.7" fill="#141416" paint-order="markers fill stroke" ry="1.1" style="marker:none"/></g><g stroke-width=".8"><path fill="#abb3ba" stroke="#000" stroke-linecap="round" stroke-linejoin="round" d="M703.5-225l-6.2 15.6 4.3 2.2 6.8-13 1.6.5-5.7 14.6 4.6 1.7 5.7-15.3 1.6.2-3.3 15.6 5.2.7 3.4-16.2h.6l1 8.5 3.5-1.6s.2-4.9-.4-9c-.5-4-5.2-4.9-9.5-6.5-9-3.5-10.2-3.6-13.2 2z" paint-order="markers fill stroke" style="marker:none" transform="matrix(1.47032 0 0 1.4698 -1024.7 410.2)"/><path fill="#7c8997" d="M5.3 104l8.3-16c.5-1.6 2.1-2 2.7-1.7l-9.6 18.5zM17.2 110.4l8.4-22.1c-1-.4-1.6-.2-2 .7l-8 20.8zM35.7 88.8l-5 23.5-2-.3s4.3-20 4.8-21.5c.5-1.6 2.2-1.7 2.2-1.7zM43 99l-1 .5-.8-16.4s1.2 1.2 1.3 3.7c.6 4.1.6 10.9.6 12.1z" paint-order="markers fill stroke" style="marker:none"/><g stroke-linecap="round" stroke-linejoin="round"><path fill="#4f5961" stroke="#000" d="M712.2-227.8a199.5 199.5 0 0 1 21-40c1.6-2.3 9.2-9 11.5-8.5 2.6 0-1.9 14.7-6 22-5.4 8.7-12.4 21-20 29.1z" paint-order="markers fill stroke" style="marker:none" transform="matrix(1.47032 0 0 1.4698 -1024.7 410.2)"/><g fill="none" stroke="#707d88"><path d="M731.2-263.3c-1.9 2.8 1.8 4.8 3.5 1.3M735.5-261.8c-1.9 2.8 2.3 4.8 4 1.2M732-259.7c-1.9 2.8 2.2 4.9 3.9 1.3M736.8-258c-1 1.5-.1 3 1.1 3.1M728-258.2c1 .2 2.3-.2 3-1.9M728.6-257.6c-1.9 2.8 1.8 4.8 3.5 1.3M732.9-256.1c-1.8 2.8 2.3 4.7 4 1.2M728.9-254.3c-1.9 2.8 2.2 4.9 3.9 1.3M733.4-252.5c-1 1.7-.1 3 1.2 3.2M725-253c1 .2 2.3-.2 3-1.8M725.1-252.5c-1.8 2.8 2 4.8 3.6 1.3M729.5-251c-1.9 2.8 2.3 4.8 4 1.2M725.6-248.9c-1.9 2.9 2.2 5 3.9 1.4M730.3-247.5c-1 1.7-.1 3 1.1 3.2M722-247.6c1 .3 2.3-.2 3-1.8M722.1-246.6c-1.8 2.8 1.9 4.8 3.6 1.2M726.4-245.2c-1.8 2.9 2.4 4.8 4 1.3M722.6-243.2c-1.8 2.9 2.3 5 4 1.4M727.4-241.8c-.9 1.4-.4 2.6.5 3M719.5-241.8c1 0 2-.5 2.6-1.9M719.1-241.3c-1.8 2.9 1.9 4.9 3.6 1.3M723.4-239.8c-1.8 2.8 2.4 4.8 4 1.2M715.7-233.5c.6 1.1 2.7 1.2 3.8-1.2M720-234c-1.2 2 .3 3.4 2 3M715-227.6c.6-.3 1.1-.7 1.5-1.6M717-228.6c-.3.7-.4 1-.3 1.6M719.5-237.7c-1.8 2.8 2.3 4.9 4 1.3M724.3-236.3c-.7 1-.5 2 0 2.6M717-236.4c.8-.2 1.5-.8 2-1.9M734.5-263.6c.3 1.5 2.6 2.1 4 0M739-263.6c-1 1.7 0 3 1.4 3.2M716.4-232.4c-1.9 2.9 2 5.3 3.7 1.8M721-230.6c-.5.7-.6 1.4-.4 2M714.4-231c.5-.3 1-.8 1.3-1.5" paint-order="markers fill stroke" style="marker:none" transform="matrix(1.47032 0 0 1.4698 -1024.7 410.2)"/></g><path fill="none" stroke="#000" d="M712.2-227.8l-1.4 3.6 6.5 2 1.3-3" paint-order="markers fill stroke" style="marker:none" transform="matrix(1.47032 0 0 1.4698 -1024.7 410.2)"/></g></g><g stroke-width=".8"><path fill="#abb3ba" stroke="#000" stroke-linecap="round" stroke-linejoin="round" d="M703.5-225l-6.2 15.6 4.3 2.2 6.8-13 1.6.5-5.7 14.6 4.6 1.7 5.7-15.3 1.6.2-3.3 15.6 5.2.7 3.4-16.2h.6l1 8.5 3.5-1.6s.2-4.9-.4-9c-.5-4-5.2-4.9-9.5-6.5-9-3.5-10.2-3.6-13.2 2z" paint-order="markers fill stroke" style="marker:none" transform="matrix(-1.47534 0 0 1.4698 1237.7 410.2)"/><path fill="#7c8997" d="M204.1 104l-8.3-16c-.5-1.6-2-2-2.7-1.7l9.7 18.5zM192.2 110.4l-8.4-22.1c1-.4 1.6-.2 2 .7l8 20.8zM173.7 88.8l5 23.5 2-.3s-4.3-20-4.8-21.5c-.5-1.6-2.2-1.7-2.2-1.7zM166.2 99l1.2.5.8-16.4s-1.3 1.2-1.4 3.7c-.6 4.1-.6 10.9-.6 12.1z" paint-order="markers fill stroke" style="marker:none"/><g><g stroke-linecap="round" stroke-linejoin="round"><path fill="#4f5961" stroke="#000" d="M712.7-227.8a199.5 199.5 0 0 1 20.9-40c1.6-2.3 9.3-9.2 11.5-8.5 1.4 0-.6 6.3-1.5 10.8-.8 3.7-2.6 8-4.4 11.2-5.4 8.7-12.5 21-20.1 29.1z" paint-order="markers fill stroke" style="marker:none" transform="matrix(-1.47357 0 0 1.4698 1236 410.2)"/><g fill="none" stroke="#707d88"><path d="M721-263.3c-1.8 2.8 2 4.8 3.6 1.3M721.9-259.7c-1.9 2.8 2.2 4.9 3.9 1.3M726.7-258c-1 1.5-.1 3 1.1 3.1M718-258.2c.9.2 2.2-.2 3-1.9M718.5-257.6c-1.9 2.8 1.8 4.8 3.5 1.3M722.8-256.1c-1.9 2.8 2.3 4.7 4 1.2M718.8-254.3c-1.9 2.8 2.2 4.9 3.9 1.3M723.3-252.5c-1 1.7-.1 3 1.1 3.2M715-253c.9.2 2.2-.2 3-1.8M715-252.5c-1.8 2.8 2 4.8 3.6 1.3M719.4-251c-1.9 2.8 2.3 4.8 4 1.2M715.5-248.9c-1.9 2.9 2.2 5 3.9 1.4M720.2-247.5c-1 1.7-.1 3 1.1 3.2M712-247.6c.9.3 2.2-.2 3-1.8M712-246.6c-1.8 2.8 1.9 4.8 3.6 1.2M716.3-245.2c-1.8 2.9 2.4 4.8 4 1.3M712.5-243.2c-1.8 2.9 2.3 5 4 1.4M717.3-241.8c-.9 1.4-.4 2.6.5 3M709.4-241.8c.9 0 2-.5 2.6-1.9M709-241.3c-1.8 2.9 1.9 4.9 3.6 1.3M713.3-239.8c-1.8 2.8 2.4 4.8 4 1.2M705.5-233.5c.7 1.1 2.8 1.2 3.9-1.2M710-234c-1.3 2 .2 3.4 1.8 3M704.9-227.6c.6-.3 1-.7 1.5-1.6M707-228.6c-.4.7-.5 1-.4 1.6M709.4-237.7c-1.8 2.8 2.3 4.9 4 1.3M714.2-236.3c-.7 1-.5 2 0 2.6M707-236.4c.7-.2 1.4-.8 2-1.9M724.3-263.6c.4 1.5 2.7 2.1 4 0M729-263.6c-1.2 1.7-.1 3 1.2 3.2M725.4-261.8c-1.9 2.8 2.3 4.8 4 1.2M706.3-232.4c-1.9 2.9 2 5.3 3.7 1.8M710.9-230.6c-.5.7-.6 1.4-.4 2M704.3-231c.5-.3 1-.8 1.3-1.5" paint-order="markers fill stroke" style="marker:none" transform="matrix(-1.47357 0 0 1.4698 1220.4 410.2)"/></g></g><path fill="none" stroke="#000" stroke-linecap="round" stroke-linejoin="round" d="M823.3-227.8l1.4 3.6-6.4 2-1.4-3" paint-order="markers fill stroke" style="marker:none" transform="matrix(1.47032 0 0 1.4698 -1024.7 410.2)"/></g></g></svg>