<svg xmlns="http://www.w3.org/2000/svg" viewBox="0 0 442.5 169"><g transform="translate(168.3 -87.4)"><g stroke-width=".8"><path d="M-82.8 224c1.8 8 3.7 16 4.5 26.2l-6.3 1c-1.1-8-1.3-15.6-4.7-21.9zM-92.6 225.4c1.8 8 3.6 16 4.5 26.1l-6.4.3c-1-8-1.2-14.8-4.6-21.1zM-73.3 221.7c1.8 8 3.7 15.9 4.6 26l-5.6 1.9c-1.2-8-2-16.3-5.5-22.7zM-58.5 216.4a49 49 0 0 1 7.8 22.9l-5.2 2.8a46 46 0 0 0-9.5-23.6z" paint-order="markers fill stroke" style="marker:none"/><path d="M-64 219c2 8.3 4.2 16.5 4.5 26.2l-5.6 1.7a65 65 0 0 0-5.9-22z" paint-order="markers fill stroke" style="marker:none"/><g><path d="M-125.7 224c-1.8 8-3.7 16-4.6 26.2l6.4 1c1.1-8 1.2-15.6 4.7-21.9zM-115.9 225.4c-1.8 8-3.6 16-4.5 26.1l6.4.3c1-8 1.2-14.8 4.6-21.1zM-135.2 221.7c-1.8 8-3.7 15.9-4.6 26l5.6 1.9c1.1-8 2-16.3 5.5-22.7zM-150 216.4a49 49 0 0 0-7.9 22.9l5.3 2.8a46 46 0 0 1 9.5-23.6z" paint-order="markers fill stroke" style="marker:none"/><path d="M-144.5 219c-2.1 8.3-4.2 16.5-4.5 26.2l5.6 1.7a65 65 0 0 1 5.9-22z" paint-order="markers fill stroke" style="marker:none"/></g></g><g stroke-width=".9"><path fill="#b3bbc1" stroke="#000" stroke-linecap="round" stroke-linejoin="round" d="M762.4-285.2l-2.2 8.1c1.4 2 8.1 5.2 15.6.2l-2.9-9z" paint-order="markers fill stroke" style="marker:none" transform="matrix(1.47032 0 0 1.26471 -1233.2 601.8)"/><path fill="#58636b" d="M-94.7 247.4c-8.7 4-19.5 2.3-19.5 2.3l1.8-6.2 16.2-.2z" paint-order="markers fill stroke" style="marker:none"/></g><ellipse cx="-104.3" cy="186" fill="#b6bdc5" stroke="#000" stroke-linecap="round" stroke-linejoin="round" stroke-width="1.2" paint-order="markers fill stroke" rx="60.4" ry="57.9" style="marker:none"/><path fill="#95a0a8" d="M-150.9 216s16.6 23.9 45.8 23.9c29.2 0 47.2-24.4 47.2-24.4l1.8 4.3a58.9 58.9 0 0 1-48.2 23.4 61.4 61.4 0 0 1-48.2-23.4l1.6-3.9z" paint-order="markers fill stroke" style="marker:none"/><g stroke-width=".8"><g><path fill="#5c6871" d="M-145.8 191.9c22-11.3 50.5-11.7 83-5.2l-.4-3.8s-8.3-6.7-41.5-6.7c-33.1 0-40.6 6.7-40.6 6.7z" paint-order="markers fill stroke" style="marker:none"/><g><g><path fill="#8f9aa3" stroke="#000" stroke-linecap="round" stroke-linejoin="round" d="M724.7-315v23.8c0 2.7 2.4 1.5 4.3-.6 2.3-2.5 9.2-8.5 10.9-33.1-8 2.4-15.2 9.9-15.2 9.9z" paint-order="markers fill stroke" style="marker:none" transform="matrix(1.47032 0 0 1.4698 -1233.2 660.5)"/><g stroke="#000" stroke-linecap="round" stroke-linejoin="round"><path fill="#8f9aa3" d="M724.7-315v23.8c0 2.7 2.4 1.5 4.3-.6 2.3-2.5 9.2-8.5 10.9-33.1-8 2.4-15.2 9.9-15.2 9.9z" paint-order="markers fill stroke" style="marker:none" transform="matrix(-1.4653 0 0 1.4698 1021 660.5)"/><path fill="#cdd2d6" d="M724.7-315c0-25.4 5-55.4 38.8-58.7 2.9-.4 6-.3 8.5 0 34.2 3.2 39.2 33.2 39.2 58.7 0 0-9.7-18.6-43.9-18.6S724.7-315 724.7-315z" paint-order="markers fill stroke" style="marker:none" transform="matrix(-1.4653 0 0 1.4698 1021 660.5)"/></g><path fill="#8f9aa3" stroke="#000" stroke-linecap="round" stroke-linejoin="round" d="M773.5-389.4l-4.3 48.8h-2.7l-4.3-48.8h11.3zM724.7-315s11.7-14.5 43.2-14.5c31.3 0 43 14.5 43 14.5l-.2-9.2s-8.5-13.6-42.8-13.6c-34.5 0-43 13.6-43 13.6z" paint-order="markers fill stroke" style="marker:none" transform="matrix(1.47032 0 0 1.4698 -1233.2 660.5)"/></g><path fill="#f4f5f6" d="M-159.7 169.1c3.3-20.8 11-42.1 42.2-52.6-22.8 1.4-42.3 26.7-44.5 52.3-.3 2.6 2.1 3.1 2.3.3zM-48.9 169.1c-3.3-20.8-11-42.1-41.8-52.6 22.6 1.4 41.9 26.7 44 52.3.3 2.6-2 3.1-2.2.3z" paint-order="markers fill stroke" style="marker:none"/><path fill="#b6bdc5" d="M-163.5 184v5.2c0 2 2 .5 2.1-1.4v-5.4c-.1-1-2.3-.8-2 1.5z" paint-order="markers fill stroke" style="marker:none"/><path fill="#bdc4ca" d="M-111.2 96.4h13.9l.8-7.7H-112z" paint-order="markers fill stroke" style="marker:none"/><path fill="#b6bdc5" d="M-163.8 196.4l-1 36 2.2-2.3 1-35.3zM-45.5 183v5.2c.1 2-2 .5-2.1-1.4l.1-5.4c0-1 2.3-.8 2 1.5zM-45.2 195.4l1 36-2.2-2.3-1-35.3z" paint-order="markers fill stroke" style="marker:none"/></g></g><path fill="#5c6871" d="M-152.6 219.9l2.6 3c4.8-6.8 8.2-18.4 10-35 0-3.5-5.5 3.6-5.5 3.6-2.4 19.1-6.1 26-7 28.4zM-56 219.8l-2.6 3.1c-4.9-6.8-8.2-21-10-37.6 0-3.5 5 .8 5 .8 2.3 24.3 7 31.7 7.5 33.7z" paint-order="markers fill stroke" style="marker:none"/></g></g><g transform="translate(168.3 -86.9)"><g stroke-width=".8"><path d="M74.4 223.6c1.9 8 3.7 15.9 4.6 26.1l-6.4 1c-1.1-8-1.2-15.5-4.7-21.9zM64.6 225c1.8 7.9 3.7 15.9 4.6 26l-6.4.3c-1.1-8-1.2-14.7-4.7-21zM84 221.2c1.8 8 3.6 16 4.5 26.1l-5.6 1.8c-1.1-8-2-16.3-5.5-22.6zM98.7 216a49 49 0 0 1 7.9 22.8l-5.3 2.9a46 46 0 0 0-9.5-23.7z" paint-order="markers fill stroke" style="marker:none"/><path d="M93.2 218.6c2.1 8.2 4.3 16.5 4.6 26.1l-5.6 1.8a65 65 0 0 0-6-22.1z" paint-order="markers fill stroke" style="marker:none"/><g><path d="M31.5 223.6c-1.8 8-3.6 15.9-4.5 26.1l6.4 1c1-8 1.2-15.5 4.6-21.9zM41.4 225c-1.9 7.9-3.7 15.9-4.6 26l6.4.3c1.1-8 1.2-14.7 4.7-21zM22 221.2c-1.8 8-3.6 16-4.5 26.1l5.6 1.8c1-8 2-16.3 5.4-22.6zM7.2 216a49 49 0 0 0-7.8 22.8l5.2 2.9a46 46 0 0 1 9.5-23.7z" paint-order="markers fill stroke" style="marker:none"/><path d="M12.8 218.6c-2.2 8.2-4.3 16.5-4.6 26.1l5.6 1.8a65 65 0 0 1 6-22.1z" paint-order="markers fill stroke" style="marker:none"/></g></g><g stroke-width=".9"><path fill="#b3bbc1" stroke="#000" stroke-linecap="round" stroke-linejoin="round" d="M762.4-285.2l-2.2 8.1c1.4 2 8.1 5.2 15.6.2l-2.9-9z" paint-order="markers fill stroke" style="marker:none" transform="matrix(1.47032 0 0 1.26471 -1076 601.4)"/><path fill="#58636b" d="M62.5 247c-8.7 4-19.5 2.2-19.5 2.2l1.9-6.2 16.2-.2z" paint-order="markers fill stroke" style="marker:none"/></g><ellipse cx="52.9" cy="185.5" fill="#b6bdc5" stroke="#000" stroke-linecap="round" stroke-linejoin="round" stroke-width="1.2" paint-order="markers fill stroke" rx="60.4" ry="57.9" style="marker:none"/><ellipse cx="28.2" cy="197.5" fill="#95a0a8" paint-order="markers fill stroke" rx="8.3" ry="8.3" style="marker:none"/><ellipse cx="80.3" cy="198.8" fill="#95a0a8" paint-order="markers fill stroke" rx="8.4" ry="8.4" style="marker:none"/><ellipse cx="23.7" cy="212.6" fill="#95a0a8" paint-order="markers fill stroke" rx="9.1" ry="5" style="marker:none"/><ellipse cx="85.9" cy="212.6" fill="#95a0a8" paint-order="markers fill stroke" rx="9.1" ry="5" style="marker:none"/><path fill="#ccd1d7" stroke="#000" stroke-linecap="round" stroke-linejoin="round" stroke-width="1.2" d="M61.9 214.3c-.6-3.2-5.2-9.8-6.4-11.3-.7-.8-1.5-1-2.5-1s-1.8.2-2.5 1c-1.3 1.5-5.8 8.1-6.4 11.3-.2 3.8 6 3.5 8.9 3.5 3 0 9 .3 8.9-3.5z" paint-order="markers fill stroke" style="marker:none"/><path fill="#95a0a8" d="M6.4 215.4s16.5 24 45.7 24c29.3 0 47.3-24.4 47.3-24.4.6 1.8 1.2 3 1.7 4.3A58.9 58.9 0 0 1 53 242.7a61.4 61.4 0 0 1-48.2-23.3l1.7-4z" paint-order="markers fill stroke" style="marker:none"/><rect width="11.4" height="4.1" x="47" y="212.3" fill="#e1e4e6" paint-order="markers fill stroke" ry="2" style="marker:none"/><g stroke-width=".8"><g><path fill="#5c6871" d="M11.4 191.4c22-11.3 50.6-11.7 83.1-5.2l-.5-3.7s-8.2-6.8-41.4-6.8-40.7 6.8-40.7 6.8z" paint-order="markers fill stroke" style="marker:none"/><g><g><path fill="#8f9aa3" stroke="#000" stroke-linecap="round" stroke-linejoin="round" d="M724.7-315v23.8c0 2.7 2.4 1.5 4.3-.6 2.3-2.5 9.2-8.5 10.9-33.1-8 2.4-15.2 9.9-15.2 9.9z" paint-order="markers fill stroke" style="marker:none" transform="matrix(1.47032 0 0 1.4698 -1076 660)"/><g stroke="#000" stroke-linecap="round" stroke-linejoin="round"><path fill="#8f9aa3" d="M724.7-315v23.8c0 2.7 2.4 1.5 4.3-.6 2.3-2.5 9.2-8.5 10.9-33.1-8 2.4-15.2 9.9-15.2 9.9z" paint-order="markers fill stroke" style="marker:none" transform="matrix(-1.4653 0 0 1.4698 1178.2 660)"/><path fill="#cdd2d6" d="M724.7-315c0-25.4 5-55.4 38.8-58.7 2.9-.4 6-.3 8.5 0 34.2 3.2 39.2 33.2 39.2 58.7 0 0-9.7-18.6-43.9-18.6S724.7-315 724.7-315z" paint-order="markers fill stroke" style="marker:none" transform="matrix(-1.4653 0 0 1.4698 1178.2 660)"/></g><path fill="#8f9aa3" stroke="#000" stroke-linecap="round" stroke-linejoin="round" d="M773.5-389.4l-4.3 48.8h-2.7l-4.3-48.8h11.3zM724.7-315s11.7-14.5 43.2-14.5c31.3 0 43 14.5 43 14.5l-.2-9.2s-8.5-13.6-42.8-13.6c-34.5 0-43 13.6-43 13.6z" paint-order="markers fill stroke" style="marker:none" transform="matrix(1.47032 0 0 1.4698 -1076 660)"/></g><path fill="#f4f5f6" d="M-2.5 168.6C.9 148 8.5 126.5 39.7 116 17 117.4-2.6 142.7-4.8 168.4c-.2 2.6 2.2 3 2.3.2zM108.4 168.6c-3.4-20.7-11-42.1-41.9-52.6 22.6 1.4 42 26.7 44.1 52.4.3 2.6-2.1 3-2.2.2z" paint-order="markers fill stroke" style="marker:none"/><path fill="#b6bdc5" d="M-6.2 183.4v5.3c-.2 2 2 .5 2-1.3v-5.5c0-1-2.3-.7-2 1.5z" paint-order="markers fill stroke" style="marker:none"/><path fill="#bdc4ca" d="M46 96h14l.7-7.8H45.3z" paint-order="markers fill stroke" style="marker:none"/><path fill="#b6bdc5" d="M-6.6 196l-1 36 2.2-2.4 1-35.3zM111.7 182.5v5.2c.2 2-1.9.5-2-1.3v-5.5c0-1 2.3-.7 2 1.6zM112 195l1 36-2.1-2.4-1-35.3z" paint-order="markers fill stroke" style="marker:none"/></g></g><path fill="#5c6871" d="M4.7 219.4l2.5 3.1c4.9-6.9 8.3-18.5 10-35.1 0-3.5-5.5 3.7-5.5 3.7-2.4 19-6 26-7 28.3zM101.2 219.4l-2.6 3c-4.8-6.8-8.2-21-10-37.6.1-3.4 5 .8 5 .8 2.3 24.3 7 31.7 7.6 33.8z" paint-order="markers fill stroke" style="marker:none"/></g><path fill="#9aa5ac" stroke="#000" stroke-linecap="round" stroke-linejoin="round" stroke-width="1.2" d="M44.1 214.9c-.2 1-1.4 6.3 8.7 6.3 10 0 9-6 9-6 0 3.4-18 3.5-17.7-.3z" paint-order="markers fill stroke" style="marker:none"/><circle cx="67.4" cy="227.7" r="2.8" fill="#353b40" stroke="#000" stroke-linecap="round" stroke-linejoin="round" stroke-width="1.2" paint-order="markers fill stroke" style="marker:none"/><path fill="none" stroke="#000" stroke-linecap="round" stroke-linejoin="round" stroke-width="1.2" d="M75 200.3h10.2M23.7 199.2h9.4" paint-order="markers fill stroke" style="marker:none"/></g><g transform="translate(168.3 -87.8)"><g stroke-width=".8"><path d="M231.6 224.5c1.9 8 3.7 16 4.6 26.2l-6.4 1c-1-8-1.2-15.6-4.7-22zM221.8 225.9c1.8 8 3.7 16 4.6 26.1l-6.4.2c-1.1-7.9-1.2-14.7-4.7-21zM241.2 222.1c1.8 8 3.6 16 4.5 26.2l-5.6 1.8c-1.1-8-2-16.3-5.5-22.7zM256 217a49 49 0 0 1 7.8 22.8l-5.3 2.8A46 46 0 0 0 249 219z" paint-order="markers fill stroke" style="marker:none"/><path d="M250.4 219.5c2.1 8.3 4.3 16.5 4.6 26.1l-5.6 1.8a65 65 0 0 0-6-22z" paint-order="markers fill stroke" style="marker:none"/><g><path d="M188.7 224.5c-1.8 8-3.6 16-4.5 26.2l6.4 1c1-8 1.2-15.6 4.7-22zM198.6 225.9c-1.8 8-3.7 16-4.6 26.1l6.4.2c1.1-7.9 1.2-14.7 4.7-21zM179.2 222.1c-1.8 8-3.6 16-4.5 26.2l5.6 1.8c1-8 2-16.3 5.4-22.7zM164.4 217a49 49 0 0 0-7.8 22.8l5.3 2.8a46 46 0 0 1 9.4-23.7z" paint-order="markers fill stroke" style="marker:none"/><path d="M170 219.5c-2.2 8.3-4.3 16.5-4.6 26.1l5.6 1.8a65 65 0 0 1 6-22z" paint-order="markers fill stroke" style="marker:none"/></g></g><g stroke-width=".9"><path fill="#b3bbc1" stroke="#000" stroke-linecap="round" stroke-linejoin="round" d="M762.4-285.2l-2.2 8.1c1.4 2 8.1 5.2 15.6.2l-2.9-9z" paint-order="markers fill stroke" style="marker:none" transform="matrix(1.47032 0 0 1.26471 -918.7 602.3)"/><path fill="#58636b" d="M219.7 248c-8.7 4-19.5 2.2-19.5 2.2l1.9-6.2 16.2-.2z" paint-order="markers fill stroke" style="marker:none"/></g><ellipse cx="210.1" cy="186.5" fill="#b6bdc5" stroke="#000" stroke-linecap="round" stroke-linejoin="round" stroke-width="1.2" paint-order="markers fill stroke" rx="60.4" ry="57.9" style="marker:none"/><ellipse cx="185.4" cy="198.5" fill="#95a0a8" paint-order="markers fill stroke" rx="8.3" ry="8.3" style="marker:none"/><ellipse cx="185.6" cy="200" fill="#fff" stroke="#000" stroke-linecap="round" stroke-linejoin="round" stroke-width="1.2" paint-order="markers fill stroke" rx="4.6" ry="4.6" style="marker:none"/><ellipse cx="237.5" cy="199.7" fill="#95a0a8" paint-order="markers fill stroke" rx="8.4" ry="8.4" style="marker:none"/><ellipse cx="237.4" cy="201" fill="#fff" stroke="#000" stroke-linecap="round" stroke-linejoin="round" stroke-width="1.2" paint-order="markers fill stroke" rx="4.9" ry="4.9" style="marker:none"/><ellipse cx="180.9" cy="213.5" fill="#95a0a8" paint-order="markers fill stroke" rx="9.1" ry="5" style="marker:none"/><ellipse cx="243.1" cy="213.5" fill="#95a0a8" paint-order="markers fill stroke" rx="9.1" ry="5" style="marker:none"/><g stroke-width=".8"><path fill="#58636b" stroke="#000" stroke-linecap="round" stroke-linejoin="round" d="M783.4-299.7s.2 5.2-2.8 7.3c-2.8 2-5.3 1-6.8-.1z" paint-order="markers fill stroke" style="marker:none" transform="matrix(1.47032 0 0 1.4698 -918.7 661)"/><path fill="#3a4147" d="M221.3 231.7l11.5-7.9.4-3.3L219 231z" paint-order="markers fill stroke" style="marker:none"/><path fill="none" stroke="#000" stroke-linecap="round" stroke-linejoin="round" d="M783.4-299.7s.2 5.2-2.8 7.3c-2.8 2-5.3 1-6.8-.1z" paint-order="markers fill stroke" style="marker:none" transform="matrix(1.47032 0 0 1.4698 -918.7 661)"/></g><path fill="#ccd1d7" stroke="#000" stroke-linecap="round" stroke-linejoin="round" stroke-width="1.2" d="M219 215.2c-.5-3.2-5-9.7-6.3-11.2-.7-.9-1.5-1-2.5-1s-1.8.1-2.5 1c-1.2 1.5-5.8 8-6.4 11.2-.2 3.8 6 3.5 9 3.5s9 .3 8.8-3.5z" paint-order="markers fill stroke" style="marker:none"/><path fill="#95a0a8" d="M163.6 216.4s16.5 24 45.8 24c29.2 0 47.2-24.4 47.2-24.4l1.7 4.3a58.9 58.9 0 0 1-48.1 23.4 61.4 61.4 0 0 1-48.3-23.4l1.7-4z" paint-order="markers fill stroke" style="marker:none"/><rect width="11.4" height="4.1" x="204.2" y="213.3" fill="#e1e4e6" paint-order="markers fill stroke" ry="2" style="marker:none"/><g stroke-width=".8"><g><path fill="#5c6871" d="M168.6 192.4c22-11.3 50.6-11.7 83.1-5.2l-.5-3.8s-8.2-6.7-41.4-6.7-40.7 6.7-40.7 6.7z" paint-order="markers fill stroke" style="marker:none"/><g><g><path fill="#8f9aa3" stroke="#000" stroke-linecap="round" stroke-linejoin="round" d="M724.7-315v23.8c0 2.7 2.4 1.5 4.3-.6 2.3-2.5 9.2-8.5 10.9-33.1-8 2.4-15.2 9.9-15.2 9.9z" paint-order="markers fill stroke" style="marker:none" transform="matrix(1.47032 0 0 1.4698 -918.8 661)"/><g stroke="#000" stroke-linecap="round" stroke-linejoin="round"><path fill="#8f9aa3" d="M724.7-315v23.8c0 2.7 2.4 1.5 4.3-.6 2.3-2.5 9.2-8.5 10.9-33.1-8 2.4-15.2 9.9-15.2 9.9z" paint-order="markers fill stroke" style="marker:none" transform="matrix(-1.4653 0 0 1.4698 1335.4 661)"/><path fill="#cdd2d6" d="M724.7-315c0-25.4 5-55.4 38.8-58.7 2.9-.4 6-.3 8.5 0 34.2 3.2 39.2 33.2 39.2 58.7 0 0-9.7-18.6-43.9-18.6S724.7-315 724.7-315z" paint-order="markers fill stroke" style="marker:none" transform="matrix(-1.4653 0 0 1.4698 1335.4 661)"/></g><path fill="#8f9aa3" stroke="#000" stroke-linecap="round" stroke-linejoin="round" d="M773.5-389.4l-4.3 48.8h-2.7l-4.3-48.8h11.3zM724.7-315s11.7-14.5 43.2-14.5c31.3 0 43 14.5 43 14.5l-.2-9.2s-8.5-13.6-42.8-13.6c-34.5 0-43 13.6-43 13.6z" paint-order="markers fill stroke" style="marker:none" transform="matrix(1.47032 0 0 1.4698 -918.8 661)"/></g><path fill="#f4f5f6" d="M154.7 169.6c3.4-20.8 11-42.2 42.2-52.6-22.8 1.3-42.3 26.7-44.5 52.3-.2 2.6 2.2 3.1 2.3.3zM265.6 169.6c-3.4-20.8-11-42.2-41.9-52.6 22.6 1.3 42 26.7 44.1 52.3.3 2.6-2 3.1-2.2.3z" paint-order="markers fill stroke" style="marker:none"/><path fill="#b6bdc5" d="M151 184.4v5.3c-.1 2 2 .5 2-1.4v-5.5c0-.9-2.3-.7-2 1.6z" paint-order="markers fill stroke" style="marker:none"/><path fill="#bdc4ca" d="M203.3 97l13.8-.1.8-7.7h-15.4z" paint-order="markers fill stroke" style="marker:none"/><path fill="#b6bdc5" d="M150.6 196.9l-1 36 2.3-2.3 1-35.4zM269 183.4v5.3c0 2-2 .5-2.1-1.4v-5.5c0-.9 2.3-.7 2 1.6zM269.3 196l1 35.9-2.2-2.3-1-35.3z" paint-order="markers fill stroke" style="marker:none"/></g></g><path fill="#5c6871" d="M161.9 220.4l2.5 3c4.9-6.8 8.3-18.4 10-35 0-3.5-5.4 3.6-5.4 3.6-2.5 19-6.2 26-7.1 28.4zM258.4 220.3l-2.5 3.1c-5-6.9-8.3-21-10-37.7 0-3.4 4.9.9 4.9.9 2.3 24.3 7 31.7 7.6 33.7z" paint-order="markers fill stroke" style="marker:none"/></g><path fill="#9aa5ac" stroke="#000" stroke-linecap="round" stroke-linejoin="round" stroke-width="1.2" d="M201.3 215.8c-.2 1-1.4 6.3 8.7 6.3 10 0 9-6 9-6 0 3.5-18 3.6-17.7-.3z" paint-order="markers fill stroke" style="marker:none"/></g></svg>