<svg xmlns="http://www.w3.org/2000/svg" viewBox="0 0 135.52 88.34"><g stroke-width=".82"><g stroke-linecap="round" stroke-linejoin="round"><path transform="matrix(1.47032 0 0 1.4698 -1061.53 310.03)" style="marker:none" fill="#4f5961" stroke="#000" d="M777.95-202.9s1.91 22.97.33 35.36c-1.57 12.38 5.75 1.35 5.75 1.35s6.08-21.96 6.3-37.61c.23-15.65-12.38.9-12.38.9z" paint-order="markers fill stroke"/><g fill="none" stroke="#707d88"><path d="M731.15-263.29c-1.83 2.84 1.89 4.83 3.56 1.27M735.48-261.82c-1.83 2.84 2.35 4.79 4.03 1.23M731.96-259.75c-1.83 2.84 2.24 4.92 3.92 1.36M736.82-258.09c-.87 1.34-.42 2.5.47 3M728.53-258.17c.88 0 1.86-.53 2.5-1.88M728.56-257.61c-1.83 2.83 1.88 4.83 3.56 1.27M732.89-256.14c-1.84 2.83 2.35 4.78 4.02 1.22M728.88-254.32c-1.83 2.84 2.24 4.92 3.92 1.36M733.43-252.48c-.83 1.27-.46 2.4.35 2.92M726.32-253.1a3.2 3.2 0 0 0 1.71-1.74M724.99-249.94c.77 1 2.65.98 3.71-1.28M729.46-251.02c-1.83 2.84 2.36 4.79 4.03 1.23M725.57-248.85c-1.84 2.83 2.24 4.92 3.91 1.36M730.32-247.48c-.76 1.17-.51 2.2.15 2.78M724.18-248.17c.32-.3.61-.7.86-1.21M722.09-243.92c.84.83 2.57.68 3.57-1.44M726.42-245.17c-1.26 1.97.35 3.5 2.02 3.09M722.64-243.17c-1.83 2.83 2.24 4.92 3.92 1.36M727.39-241.8a2.4 2.4 0 0 0-.43 1.78M721.52-242.78c.28-.28.37-.45.6-.92M719.3-238.39c.9.62 2.44.35 3.36-1.61M723.43-239.8c-.9 1.38-.35 2.56.64 2.98M716.31-232.93c.91.46 2.3.1 3.17-1.73M720.02-234.02c-.62.96-.55 1.81-.13 2.39M719.54-237.72c-1.83 2.83 2.24 4.92 3.92 1.36M716.37-232.37c-.58.9-.58 1.77-.26 2.41" style="marker:none" paint-order="markers fill stroke" transform="scale(1.47032 1.4698) rotate(-25.45 1001.94 1365.1)"/></g></g><path style="marker:none" fill="#33393d" d="M99.87 8.73c.15-7.13-10.97-5-16.72 3.2l.43 9.35c3.8 1.87 14.4.04 15.73-.7.42-2 .58-10.9.56-11.85z" paint-order="markers fill stroke"/><g><g fill="#4f5961" stroke="#000" stroke-linecap="round" stroke-linejoin="round"><path style="marker:none" d="M774.65-176.07l15.96.29-2.67 9.6s7.7 1.86 19.6 7.93c11.92 6.08 2.28 7.46-4.12 6.89-6.4-.57-18.72-1.86-21.96-2.19-3.24-.32-5.67-1.7-5.43-5.02.24-3.32.49-6.08.49-6.08zM787.94-166.19s-4.95-.17-7.65 2.97" paint-order="markers fill stroke" transform="matrix(1.47032 0 0 1.4698 -1060.75 310.03)"/></g><path d="M81.13 79.57s.74 3.17 5.02 3.75c5.8.88 32.7 3.5 36.65 3.71 3.5.18 8.78-.28 10.65-1.51 1.02-.67 1.06-2.23-2.3-.64-2.07.98-8.7.77-12.14.47-6.61-.59-31.7-3.35-34.86-4.37-1.56-.5-3.2-2.68-3.02-1.41z" style="marker:none" fill="#30353b" paint-order="markers fill stroke"/></g><g><g stroke-linecap="round" stroke-linejoin="round"><path d="M777.95-202.9s1.91 22.97.33 35.36c-1.57 12.38 5.75 1.35 5.75 1.35s6.08-21.96 6.3-37.61c.23-15.65-12.38.9-12.38.9z" style="marker:none" fill="#4f5961" stroke="#000" paint-order="markers fill stroke" transform="matrix(-1.47074 0 0 1.4698 1197.38 310.03)"/><g fill="none" stroke="#707d88"><path style="marker:none" d="M731.15-263.29c-1.83 2.84 1.89 4.83 3.56 1.27M735.48-261.82c-1.83 2.84 2.35 4.79 4.03 1.23M731.96-259.75c-1.83 2.84 2.24 4.92 3.92 1.36M736.82-258.09c-.87 1.34-.42 2.5.47 3M728.53-258.17c.88 0 1.86-.53 2.5-1.88M728.56-257.61c-1.83 2.83 1.88 4.83 3.56 1.27M732.89-256.14c-1.84 2.83 2.35 4.78 4.02 1.22M728.88-254.32c-1.83 2.84 2.24 4.92 3.92 1.36M733.43-252.48c-.83 1.27-.46 2.4.35 2.92M726.32-253.1a3.2 3.2 0 0 0 1.71-1.74M724.99-249.94c.77 1 2.65.98 3.71-1.28M729.46-251.02c-1.83 2.84 2.36 4.79 4.03 1.23M725.57-248.85c-1.84 2.83 2.24 4.92 3.91 1.36M730.32-247.48c-.76 1.17-.51 2.2.15 2.78M724.18-248.17c.32-.3.61-.7.86-1.21M722.09-243.92c.84.83 2.57.68 3.57-1.44M726.42-245.17c-1.26 1.97.35 3.5 2.02 3.09M722.64-243.17c-1.83 2.83 2.24 4.92 3.92 1.36M727.39-241.8a2.4 2.4 0 0 0-.43 1.78M721.52-242.78c.28-.28.37-.45.6-.92M719.3-238.39c.9.62 2.44.35 3.36-1.61M723.43-239.8c-.9 1.38-.35 2.56.64 2.98M716.31-232.93c.91.46 2.3.1 3.17-1.73M720.02-234.02c-.62.96-.55 1.81-.13 2.39M719.54-237.72c-1.83 2.83 2.24 4.92 3.92 1.36M716.37-232.37c-.58.9-.58 1.77-.26 2.41" paint-order="markers fill stroke" transform="scale(-1.47074 1.4698) rotate(-25.45 955.86 1569.15)"/></g></g><path d="M35.66 8.73c-.15-7.13 10.97-5 16.73 3.2l-.44 9.35c-3.79 1.87-14.4.04-15.73-.7-.42-2-.58-10.9-.56-11.85z" style="marker:none" fill="#33393d" paint-order="markers fill stroke"/><g><g fill="#4f5961" stroke="#000" stroke-linecap="round" stroke-linejoin="round"><path d="M774.65-176.07l15.96.29-2.67 9.6s7.7 1.86 19.6 7.93c11.92 6.08 2.28 7.46-4.12 6.89-6.4-.57-18.72-1.86-21.96-2.19-3.24-.32-5.67-1.7-5.43-5.02.24-3.32.49-6.08.49-6.08zM787.94-166.19s-4.95-.17-7.65 2.97" style="marker:none" paint-order="markers fill stroke" transform="matrix(-1.47074 0 0 1.4698 1196.6 310.03)"/></g><path style="marker:none" fill="#30353b" d="M54.4 79.57s-.74 3.17-5.02 3.75c-5.8.88-32.7 3.5-36.66 3.71-3.5.18-8.79-.28-10.66-1.51-1.01-.67-1.05-2.23 2.31-.64 2.07.98 8.7.77 12.14.47 6.61-.59 31.7-3.35 34.87-4.37 1.56-.5 3.2-2.68 3.02-1.41z" paint-order="markers fill stroke"/></g></g></g></svg>