<svg xmlns="http://www.w3.org/2000/svg" viewBox="-.6 0 140.96 72.39"><path fill="#b3bbc1" stroke="#000" stroke-linecap="round" stroke-linejoin="round" stroke-width="1.2" d="M21.27 70.54L69.9 58.37l48.67 12.17c-1.14-11.06-2.1-21.86-4.93-32.91-2.78-1.97-7.58-10.14-9.43-18.52-1.22-5.52.14-10.6-.4-15.9L88.92.95s-11.8 7.43-18.81 7.4C63.18 8.33 51.59.95 51.59.95l-6.35.79-5.06 1.68c-4.11 12.35-6.11 27.86-14.08 34.43-3.79 13.88-3.8 21.71-4.83 32.7z" paint-order="markers fill stroke" style="marker:none"/><g stroke-width=".82"><path fill="#b3bbc1" stroke="#000" stroke-linecap="round" stroke-linejoin="round" d="M749.77-278.06c4.47.24 7.26 2.18 2.1 7.62-4.65 4.91-16.3 9.67-29.51 1.53-8.72-5.37 18.77-9.53 27.4-9.15z" paint-order="markers fill stroke" style="marker:none" transform="matrix(1.47032 0 0 1.4698 -1059.62 409.32)"/><path fill="#dfe2e5" d="M22.24 6.57c-1-1.11-5.4-.47-7.7.07-26.2 6.16 14.91 7.9 7.7-.07z" paint-order="markers fill stroke" style="marker:none"/></g><g stroke-width=".82"><path fill="#b3bbc1" stroke="#000" stroke-linecap="round" stroke-linejoin="round" d="M749.77-278.06c4.47.24 7.26 2.18 2.1 7.62-4.65 4.91-16.3 9.67-29.51 1.53-8.72-5.37 18.77-9.53 27.4-9.15z" paint-order="markers fill stroke" style="marker:none" transform="matrix(-1.47357 0 0 1.4698 1201.71 409.32)"/><path fill="#dfe2e5" d="M117.46 6.57c1.33-2.26 5.41-.47 7.72.07 26.26 6.16-12.89 8.76-7.72-.07z" paint-order="markers fill stroke" style="marker:none"/></g><path fill="#5c676f" d="M21.65 72.1l48.2-10.83 48.31 11.12L118 71 69.9 58.98 21.75 71.02z" paint-order="markers fill stroke" style="marker:none"/><path fill="#c3c9ce" d="M38.85 65.43c4.99-20.63 6.37-53.88 30.34-55C93.15 9.3 99.99 52.1 101.6 65.54c-6.57-1.61-31.7-7.95-31.7-7.95z" paint-order="markers fill stroke" style="marker:none"/><g stroke-linecap="round" stroke-linejoin="round" stroke-width=".82"><g fill="none" stroke="#000"><path d="M740.46-240.59l17.17-5.64M744.33-249.85l11.2-3.87M748.63-257.59l6.14-1.76" paint-order="markers fill stroke" style="marker:none" transform="scale(1.47032 1.4698) rotate(11.65 -966.33 -3622.27)"/></g><g fill="#b6bdc5" stroke="#cdd2d6"><path d="M740.46-240.59l17.17-5.64M744.33-249.85l11.2-3.87M748.63-257.59l6.14-1.76" paint-order="markers fill stroke" style="marker:none" transform="scale(1.47032 1.4698) rotate(11.65 -961.14 -3622.8)"/></g><g fill="none"><g stroke="#000"><path d="M740.46-240.59l17.17-5.64M744.33-249.85l11.2-3.87M748.63-257.59l6.14-1.76" paint-order="markers fill stroke" style="marker:none" transform="matrix(-1.44564 .24632 .24706 1.4489 1237.47 216.89)"/></g><g stroke="#cdd2d6"><path d="M740.46-240.59l17.17-5.64M744.33-249.85l11.2-3.87M748.63-257.59l6.14-1.76" paint-order="markers fill stroke" style="marker:none" transform="matrix(-1.44564 .24632 .24706 1.4489 1237.47 215.33)"/></g></g></g></svg>