<svg xmlns="http://www.w3.org/2000/svg" viewBox="0 0 344.7 222.9"><g stroke-width=".8" transform="matrix(1.47032 -.0017 .0017 1.46979 -1275.2 486)"><path d="M926.5-182a102.2 102.2 0 0 0 34-55.4c4.6-24.5 2-87.2 2-87.2-.5-3.8-.4-4.4-7.8-4.5l-39-.1h-39.2c-7.5.2-7.2.8-7.8 4.6 0 0-2.5 62.7 2 87.2a102.2 102.2 0 0 0 34 55.4s5 3.6 11 3.6 10.8-3.6 10.8-3.6z" style="marker:none" fill="#475057" stroke="#000" stroke-linecap="round" stroke-linejoin="round" paint-order="markers fill stroke"/><path d="M914.3-328.3l1.5 149s4.7 1.8 12.1-4.6a92.8 92.8 0 0 0 19.7-23.5c10.2-16.4 16.1-35.6 14.7-63.7-1-28.2-.3-56.1-.3-56.1a10.5 10.5 0 0 0-7.1-1.7z" style="marker:none" fill="#a5aeb6" fill-opacity=".6" paint-order="markers fill stroke"/><path d="M951.4-234c5.5-28.1 2.3-75.6 1.7-80.3-.5-4.3.9-5.8-7.7-7a305.2 305.2 0 0 0-59.5 0c-8.6 1.2-7.5 3.3-7.7 7-.3 3.4-3.8 52.2 1.7 80.3 1.8 8.6 22 45.6 35.7 45.6 15.1 0 34-37 35.8-45.6z" style="marker:none" fill="#57626a" stroke="#000" stroke-linecap="round" stroke-linejoin="round" paint-order="markers fill stroke"/><path style="marker:none" fill="#a5aeb6" fill-opacity=".6" d="M914.4-322.1l1.3 133.1s4.6 1 10.4-4.6c4.3-4.1 8.7-9.8 15.8-20.8 8.5-13.1 11.8-29.8 11.9-54.6 0-24.6-1-45.6-1.5-48.1 0-3.4-5.6-3.3-7.8-3.8-10.6-1.2-20.2-1-30.1-1.2z" paint-order="markers fill stroke"/><path d="M880.8-317.5c1.3-1.2 4.5-1.8 6.6-1.9 2 0 1.4 1.4-1 2l-2.1.6s1.2 0 1.6 1.6c.4 1.6-2.4 1-2.8.2-.5-1 0 3-1.5 4.1-1.5 1.2-.8-6.6-.8-6.6z" style="marker:none" fill="#85929a" stroke="#000" stroke-linecap="round" stroke-linejoin="round" stroke-opacity=".9" paint-order="markers fill stroke"/><path style="marker:none" fill="#919da4" stroke="#000" stroke-linecap="round" stroke-linejoin="round" stroke-opacity=".9" d="M950-318c1 1.5 1 4.7.7 6.8-.3 2-1.6 1.2-1.8-1.3l-.1-2.2s-.3 1.2-2 1.3c-1.6 0-.6-2.5.4-2.8 1-.3-3-.5-3.8-2.2-.9-1.8 6.6.4 6.6.4z" paint-order="markers fill stroke"/><path d="M916.4-190.4c-1.8 0-4.3-2.1-5.7-3.6-1.5-1.6 0-2 2-.7l2 1.3s-1-1 0-2.3c1-1.3 2.4 1 2 2-.3 1 2.3-2 4.2-1.6 1.9.4-4.5 5-4.5 5z" style="marker:none" fill="#85929a" stroke="#000" stroke-linecap="round" stroke-linejoin="round" stroke-opacity=".9" paint-order="markers fill stroke"/><path d="M938.7-212.5c14.3-23.8 13-35.5 12.8-87.8-.6-2.8-1.6-2.6-1.6 0 .6 51.5.4 65.5-12.3 86.1-.9 1.5-6.7 12.4-6.4 12.9.3.4 6.7-9.6 7.5-11.2z" style="marker:none" fill="#a4aeb4" paint-order="markers fill stroke"/><path style="marker:none" fill="#718089" d="M892.1-213.4c-14.3-23.8-12.9-35.5-12.7-87.8.5-2.8 1.6-2.7 1.6 0-.6 51.4-.4 65.4 12.2 86 1 1.5 6.7 12.5 6.4 13-.3.4-6.7-9.6-7.5-11.2z" paint-order="markers fill stroke"/><path style="marker:none" fill="#a2acb2" d="M948.6-211.4c14.3-23.9 12.9-35.6 12.8-87.9-.3-1.3.4-27.2-1.5-27.5-.3 0-.1 26.1-.1 27.5.5 51.5.3 65.5-12.3 86.1-1 1.5-6.7 12.5-6.4 12.9.3.4 6.7-9.6 7.5-11.1z" paint-order="markers fill stroke"/><path d="M882.3-212c-14.3-23.9-13-35.6-12.8-87.9.3-1.6-.5-27 1.2-27.1l.4 27.1c-.6 51.5-.4 65.5 12.2 86.1 1 1.5 6.8 12.4 6.4 12.9-.3.4-6.7-9.6-7.4-11.2z" style="marker:none" fill="#718089" paint-order="markers fill stroke"/><ellipse cx="896" cy="-311.7" fill="#85929a" stroke="#000" stroke-linecap="round" stroke-linejoin="round" stroke-opacity=".9" stroke-width=".7" paint-order="markers fill stroke" rx="2" ry="2" style="marker:none"/><ellipse cx="916.7" cy="-313.7" fill="#85929a" stroke="#000" stroke-linecap="round" stroke-linejoin="round" stroke-opacity=".9" stroke-width=".7" paint-order="markers fill stroke" rx="1.3" ry="1.5" style="marker:none"/><ellipse cx="935.5" cy="-262.5" fill="#95a0a7" stroke="#000" stroke-linecap="round" stroke-linejoin="round" stroke-opacity=".9" stroke-width=".7" paint-order="markers fill stroke" rx="2.5" ry="2.3" style="marker:none"/><ellipse cx="889" cy="-270.8" fill="#85929a" stroke="#000" stroke-linecap="round" stroke-linejoin="round" stroke-opacity=".9" stroke-width=".7" paint-order="markers fill stroke" rx="1.2" ry="1.3" style="marker:none"/><path d="M919-239.6c6.1-1.7 1.5-3.1 3.8-4 4.4-1.6-1.2-6.6-.6-6.9 3.4-1.7 7.4 4.3 5.6 7-2.4 3.5-3.6 4.5-8.9 6" style="marker:none" fill="#85929a" stroke="#000" stroke-linecap="round" stroke-linejoin="round" stroke-opacity=".9" stroke-width=".7" paint-order="markers fill stroke"/><path d="M920.2-244.7c1.7-.6 2-1.6 1.7-2.4" style="marker:none" fill="none" stroke="#000" stroke-linecap="round" stroke-linejoin="round" stroke-opacity=".9" paint-order="markers fill stroke"/><path d="M886.7-262c2.1-2-.1 10 5 7.7 1.9-.8 3.7 2.2 3.8 4 .4 3.9 12.3 4.5 12.3 4.5 5.4 2.8-15.5.8-16.2-5.9-5.7-.6-9.2-6-4.9-10.3zM905-215.1c.2-.4.2-.7-3.7-2.4-5-2.1-3.4-7.5-6-8.8-2.4-1.2-3 4-.3 6-2 2.6 9 7 10 5.2z" style="marker:none" fill="#85929a" stroke="#000" stroke-linecap="round" stroke-linejoin="round" stroke-opacity=".9" stroke-width=".7" paint-order="markers fill stroke"/><g stroke="#000" stroke-linecap="round" stroke-linejoin="round" stroke-opacity=".9" stroke-width=".7"><ellipse style="marker:none" cx="942.7" cy="-302.2" fill="#95a0a7" paint-order="markers fill stroke" rx="2.7" ry="2.8"/><path style="marker:none" fill="#95a0a7" d="M918.3-274.4a27 27 0 0 0 6.6-1.6c8.2-3.5 15-18.8 8.1-25-1.4-1-6-5.1-4.7-10.3.7-3 4.1-6.8 7.5-5.2 4.6 2.1.8 5.3-.6 2.8-1.5-2.6-4.6 1.7-4.1 3.7 1.1 5 8.5 5 8 13.8-.2 3 3.2 2.6 4.3 1 2.4-3.5 3.8-2.6 3.8-.8-.3 6.6-8.6 1.8-9.9 8.2-1.6 8-2 15.1-6.7 21.3-6 8-11.5 17.5-21.2 15-4.5-1-12.2-3.3-12-8.5.3-4.3 1.9.8 7.1 3.7 8 4.4 14.2-5.6 21.6-9.3 3.7-1.8 5.8-5.7 6-8.5.2-1.2-.5-4.4-3-1.2-2.7 3.3-2.9 1.5-4.4 3-1 .8.8 3.3 3 0 1-1.3 2.3.9-.4 2.6-2 1.3-5.5-2.4-9.1-.4" paint-order="markers fill stroke"/><path style="marker:none" fill="none" d="M933.2-280c-1 .5-1.5 1.8-.6 1.8s1.1-1.9.6-1.9c-.4 0 0 0 0 0z" paint-order="markers fill stroke"/></g><path d="M900.5-312.8c-.5 0-.9.2-.4 1.1 0 0 3 4 0 5.2-10 4-16 13.6-10.9 24.7 1.4 2.8 1 4-.6 2.1-1.4-1.6-3.1-6-2.9-8.5.3-2.3-1.7-.9-1.6 3 .2 3.7 2 8.8 9 11.3 7 2.6 9.2 11.7 15 10.1a7.6 7.6 0 0 0 3.5-2.5l1-7.2c-2.5.6-9.8 1.8-5.6 4.8 3.3 2.2-.2 2.9-2.4 2-3-1.4-5.8-6.5-6.7-7.3-1.4-1.2-2.7-3.4.2-2.3 3 1.1 6.5.7 7.9 0 1.3-.7 2.1-1.3-1.7-1.2a8 8 0 0 1-8-5.5c-1.5-4.5.2-8.3 3-8.1.8 0 1.8-1.2-.6-1.8-1.3-.3-4 .1-5 3.8-.4 1.7-1.6 3.6-1.8.5-.2-5.2 1-13.4 8.8-14.8 7.4-1.4 3.7-7.2 1-9-.3-.3-.8-.4-1.2-.4zm-8.4 29.4l.6.7c1.5 2.1 3.8 4.6 1 3.6-1.5-1.8-2.1-4.3-1.6-4.3z" style="marker:none" fill="#85929a" stroke="#000" stroke-linecap="round" stroke-linejoin="round" stroke-opacity=".9" stroke-width=".7" paint-order="markers fill stroke"/><path d="M911.9-255.8c.2-1.6.4-2.8.7-3.4-1.5-.7-1-9.5.3-10.3v-7.4c-.2-1.6-.5-1.9-2-2.4-1.4-.6-9-3-7.6-15.4.7-2.8 2.1-5.1 2.7-.8.6 4.4 1.3 7.7 4.3 9.9 7.2 5.2 17.2-3.7 13-13.2-4.1-8.8 2.5-7 4.5-1.5 3.8 11-1.2 17.3-7.3 20.5-1.2.6-2.4 2.7-2.4 4.6 0 0 .8 7-1 9 1.5-1.8 1 3.4 1.1 6m.4 7.4c.3 2.8.7 7.9 0 12 .3 3.9.5 7.7.5 11.3m-.2 4.8l-.1 1.7c.4.4 1 .6 0 2.5v4.3c0 4.2-.6 9.6-3 9-1.9-.5-4-2.2-4-6.2 0 0-.8-1.2-.2-2.4-.6-.4-1.2-3.6-.1-9.6m-.7-2.5c-.2-2.8.3-8.4 1.2-13.2 0 0-.5-1.7 0-3.2a44 44 0 0 1-.3-6.6" style="marker:none" fill="#40484d" stroke="#000" stroke-linecap="round" stroke-linejoin="round" stroke-opacity=".9" paint-order="markers fill stroke"/><path d="M924.1-215.9c.8.4 2.7 1 2.8 2.1.3 2.1-3.3 3.2-4.5 4.4-.4.3.5.5.7.5 5.6 4.5-11.9 7.4-13 7.2-1.3-.2-3 1 .3 1.5 5.7.7 9.3-1 16.4-3.8 7.2-2.8-.7-5.2-.7-5.2s5-2.4 5.8-5.3c.7-3-5-3.1-6.6-3.1-1.6 0-2.6 1.2-1.2 1.7z" style="marker:none" fill="#95a0a7" stroke="#000" stroke-linecap="round" stroke-linejoin="round" stroke-opacity=".9" stroke-width=".7" paint-order="markers fill stroke"/><path d="M915.1-283.5c2-.3 3.5-.7 5-1.7.8-1 2.7-1.4 4.4-6.9 1.2-3.8-1.7-9.2-1.7-9.2-1.2-3 .7-4.9 3-1.3 3.2 4.7 4.7 13.3-1.1 19-2.3 2.2-7.1 3.8-7.2 8.1 0 2 1 6.5-.8 9.2 1.7-1.9 1 6.3 1 6.4l-3.1 2.2" style="marker:none" fill="#a0a8ae" paint-order="markers fill stroke"/><g fill="none" stroke="#000" stroke-linecap="round" stroke-linejoin="round" stroke-opacity=".9" stroke-width=".5"><path d="M918-252.5c-.6 3.2-2.2 8.6-5.8 11.5M915.7-251.5c-1 2.6-2 5.3-3.3 7M918.5-240.6c-.9 6-2.9 10.1-4.8 12.5M918.8-223.3s-4.8 8-7.2 7.5M918.7-220.3s-2.7 7.2-7 6.9M911.4-224.6s.9.8 2.4-.5m2.5-3.5a46 46 0 0 0 2.7-7.3M923.4-304.7c-.3 1.5-.3 1.8 1.1 4.4 1.4 2.7 2.9 7 1.8 10-1 3-.5 6.5-6.6 9.2-6.1 2.7-6.8 6-6.8 6" style="marker:none" paint-order="markers fill stroke"/><path d="M925.3-303.7c.1 1.6.7 3.7 1.3 5.6.7 2 2.3 6.3.8 10.2-1.5 3.9-2.5 5-2.5 5M921.5-286.8c1.2 3.4-4.3 5.9-10 3.6-3-1.2-4.8 1-4.8 1M905.7-283.3c1.1-.8 3-2.5 8.1-.9M912.8-269.5s3.2-1 5.3-5.7M912.6-259.2c1.3 1.2 2.6-4 4.9-7.8M913-271.8s1.1 1.3 5.4-5.3" style="marker:none" paint-order="markers fill stroke"/></g><path style="marker:none" fill="#95a0a7" stroke="#000" stroke-linecap="round" stroke-linejoin="round" stroke-opacity=".9" stroke-width=".7" d="M943-271.8c-2.2 0-1.3 10.8-1 11.7 3 18.5-18.3 32-31.3 32.2-1.4 0-9.1-1.4-8-3.7.9-1.8 6.5-2.6 8.4-3.6v-3.1c-2.3-.6-14.6 3.8-13.4 6.3.9 1.7 4.7 2 4.4 3.2-1.8 3 8.5 2.8 12.7 3.9 3.4.9 6.6-.5 10-1 11.5-2 17.3-14.4 19.8-24.4.6-2.4-1.4-7.8-.8-10.1.7-2.8 2.3-8.8.1-10.9-.3-.4-.6-.5-.9-.5zm-8 37.3c.8 0-1.4 2.8-3.5 4a24.1 24.1 0 0 1-7.2 2.1c2.5-1.1 4.5-1.5 8.8-4.9 1-.8 1.7-1.1 2-1.2z" paint-order="markers fill stroke"/></g><g stroke-width="1.7" color="#000"><path style="isolation:auto;mix-blend-mode:normal;marker:none" fill="#8a959e" stroke="#000" stroke-linecap="round" stroke-linejoin="round" stroke-width="2" d="M252.8 307.3L236.2 280l15.9-27 15 27z" overflow="visible" transform="matrix(.66167 .00814 -.01221 .52045 -93.7 -99.4)"/><path style="isolation:auto;mix-blend-mode:normal;marker:none" fill="#4d575e" d="M70.1 61.3l8.5-12.6h-8.3z" overflow="visible"/><path style="isolation:auto;mix-blend-mode:normal;marker:none" fill="#01a7ff" stroke="#72808b" stroke-linecap="round" stroke-linejoin="round" d="M252 256l.7 48.2" overflow="visible" transform="matrix(.66167 .00814 -.01221 .52045 -93.7 -99.4)"/><path style="isolation:auto;mix-blend-mode:normal;marker:none" fill="#1a1d1f" d="M70.4 56.1l3.7-7-3.3-.2z" overflow="visible"/><path style="isolation:auto;mix-blend-mode:normal;marker:none" fill="#01a7ff" stroke="#72808b" stroke-linecap="round" stroke-linejoin="round" d="M238.3 279.8l26.7.2" overflow="visible" transform="matrix(.66167 .00814 -.01221 .52045 -93.7 -99.4)"/><path d="M68.9 37.5l-6.8 10 6.6-.2z" style="isolation:auto;mix-blend-mode:normal;marker:none" fill="#fff" fill-opacity=".7" overflow="visible"/><path d="M68.4 57.2l-5-7.1L68 50z" style="isolation:auto;mix-blend-mode:normal;marker:none" fill="#505961" overflow="visible"/><path d="M66.9 33.3l-.8 8.6-7.8.3 7.8.4.2 10.8 1-10.9 8-.2-8-.6z" style="isolation:auto;mix-blend-mode:normal;marker:none" fill="#fff" overflow="visible"/></g><g><g stroke-width=".8" transform="matrix(1.47032 -.0017 .0017 1.46979 -1071.8 486.1)"><path d="M926.5-182a102.2 102.2 0 0 0 34-55.4c4.6-24.5 2-87.2 2-87.2-.5-3.8-.4-4.4-7.8-4.5l-39-.1h-39.2c-7.5.2-7.2.8-7.8 4.6 0 0-2.5 62.7 2 87.2a102.2 102.2 0 0 0 34 55.4s5 3.6 11 3.6 10.8-3.6 10.8-3.6z" style="marker:none" fill="#475057" stroke="#000" stroke-linecap="round" stroke-linejoin="round" paint-order="markers fill stroke"/><path d="M914.3-328.3l1.5 149s4.7 1.8 12.1-4.6a92.8 92.8 0 0 0 19.7-23.5c10.2-16.4 16.1-35.6 14.7-63.7-1-28.2-.3-56.1-.3-56.1a10.5 10.5 0 0 0-7.1-1.7z" style="marker:none" fill="#a5aeb6" fill-opacity=".6" paint-order="markers fill stroke"/><path d="M951.4-234c5.5-28.1 2.3-75.6 1.7-80.3-.5-4.3.9-5.8-7.7-7a305.2 305.2 0 0 0-59.5 0c-8.6 1.2-7.5 3.3-7.7 7-.3 3.4-3.8 52.2 1.7 80.3 1.8 8.6 22 45.6 35.7 45.6 15.1 0 34-37 35.8-45.6z" style="marker:none" fill="#57626a" stroke="#000" stroke-linecap="round" stroke-linejoin="round" paint-order="markers fill stroke"/><path style="marker:none" fill="#a5aeb6" fill-opacity=".6" d="M914.4-322.1l1.3 133.1s4.6 1 10.4-4.6c4.3-4.1 8.7-9.8 15.8-20.8 8.5-13.1 11.8-29.8 11.9-54.6 0-24.6-1-45.6-1.5-48.1 0-3.4-5.6-3.3-7.8-3.8-10.6-1.2-20.2-1-30.1-1.2z" paint-order="markers fill stroke"/><path d="M880.8-317.5c1.3-1.2 4.5-1.8 6.6-1.9 2 0 1.4 1.4-1 2l-2.1.6s1.2 0 1.6 1.6c.4 1.6-2.4 1-2.8.2-.5-1 0 3-1.5 4.1-1.5 1.2-.8-6.6-.8-6.6z" style="marker:none" fill="#85929a" stroke="#000" stroke-linecap="round" stroke-linejoin="round" stroke-opacity=".9" paint-order="markers fill stroke"/><path style="marker:none" fill="#919da4" stroke="#000" stroke-linecap="round" stroke-linejoin="round" stroke-opacity=".9" d="M950-318c1 1.5 1 4.7.7 6.8-.3 2-1.6 1.2-1.8-1.3l-.1-2.2s-.3 1.2-2 1.3c-1.6 0-.6-2.5.4-2.8 1-.3-3-.5-3.8-2.2-.9-1.8 6.6.4 6.6.4z" paint-order="markers fill stroke"/><path d="M916.4-190.4c-1.8 0-4.3-2.1-5.7-3.6-1.5-1.6 0-2 2-.7l2 1.3s-1-1 0-2.3c1-1.3 2.4 1 2 2-.3 1 2.3-2 4.2-1.6 1.9.4-4.5 5-4.5 5z" style="marker:none" fill="#85929a" stroke="#000" stroke-linecap="round" stroke-linejoin="round" stroke-opacity=".9" paint-order="markers fill stroke"/><path d="M938.7-212.5c14.3-23.8 13-35.5 12.8-87.8-.6-2.8-1.6-2.6-1.6 0 .6 51.5.4 65.5-12.3 86.1-.9 1.5-6.7 12.4-6.4 12.9.3.4 6.7-9.6 7.5-11.2z" style="marker:none" fill="#a4aeb4" paint-order="markers fill stroke"/><path style="marker:none" fill="#718089" d="M892.1-213.4c-14.3-23.8-12.9-35.5-12.7-87.8.5-2.8 1.6-2.7 1.6 0-.6 51.4-.4 65.4 12.2 86 1 1.5 6.7 12.5 6.4 13-.3.4-6.7-9.6-7.5-11.2z" paint-order="markers fill stroke"/><path style="marker:none" fill="#a2acb2" d="M948.6-211.4c14.3-23.9 12.9-35.6 12.8-87.9-.3-1.3.4-27.2-1.5-27.5-.3 0-.1 26.1-.1 27.5.5 51.5.3 65.5-12.3 86.1-1 1.5-6.7 12.5-6.4 12.9.3.4 6.7-9.6 7.5-11.1z" paint-order="markers fill stroke"/><path d="M882.3-212c-14.3-23.9-13-35.6-12.8-87.9.3-1.6-.5-27 1.2-27.1l.4 27.1c-.6 51.5-.4 65.5 12.2 86.1 1 1.5 6.8 12.4 6.4 12.9-.3.4-6.7-9.6-7.4-11.2z" style="marker:none" fill="#718089" paint-order="markers fill stroke"/><ellipse cx="896" cy="-311.7" fill="#85929a" stroke="#000" stroke-linecap="round" stroke-linejoin="round" stroke-opacity=".9" stroke-width=".7" paint-order="markers fill stroke" rx="2" ry="2" style="marker:none"/><ellipse cx="916.7" cy="-313.7" fill="#85929a" stroke="#000" stroke-linecap="round" stroke-linejoin="round" stroke-opacity=".9" stroke-width=".7" paint-order="markers fill stroke" rx="1.3" ry="1.5" style="marker:none"/><ellipse cx="935.5" cy="-262.5" fill="#95a0a7" stroke="#000" stroke-linecap="round" stroke-linejoin="round" stroke-opacity=".9" stroke-width=".7" paint-order="markers fill stroke" rx="2.5" ry="2.3" style="marker:none"/><ellipse cx="889" cy="-270.8" fill="#85929a" stroke="#000" stroke-linecap="round" stroke-linejoin="round" stroke-opacity=".9" stroke-width=".7" paint-order="markers fill stroke" rx="1.2" ry="1.3" style="marker:none"/><path d="M919-239.6c6.1-1.7 1.5-3.1 3.8-4 4.4-1.6-1.2-6.6-.6-6.9 3.4-1.7 7.4 4.3 5.6 7-2.4 3.5-3.6 4.5-8.9 6" style="marker:none" fill="#85929a" stroke="#000" stroke-linecap="round" stroke-linejoin="round" stroke-opacity=".9" stroke-width=".7" paint-order="markers fill stroke"/><path d="M920.2-244.7c1.7-.6 2-1.6 1.7-2.4" style="marker:none" fill="none" stroke="#000" stroke-linecap="round" stroke-linejoin="round" stroke-opacity=".9" paint-order="markers fill stroke"/><path d="M886.7-262c2.1-2-.1 10 5 7.7 1.9-.8 3.7 2.2 3.8 4 .4 3.9 12.3 4.5 12.3 4.5 5.4 2.8-15.5.8-16.2-5.9-5.7-.6-9.2-6-4.9-10.3zM905-215.1c.2-.4.2-.7-3.7-2.4-5-2.1-3.4-7.5-6-8.8-2.4-1.2-3 4-.3 6-2 2.6 9 7 10 5.2z" style="marker:none" fill="#85929a" stroke="#000" stroke-linecap="round" stroke-linejoin="round" stroke-opacity=".9" stroke-width=".7" paint-order="markers fill stroke"/><g stroke="#000" stroke-linecap="round" stroke-linejoin="round" stroke-opacity=".9" stroke-width=".7"><ellipse style="marker:none" cx="942.7" cy="-302.2" fill="#95a0a7" paint-order="markers fill stroke" rx="2.7" ry="2.8"/><path style="marker:none" fill="#95a0a7" d="M918.3-274.4a27 27 0 0 0 6.6-1.6c8.2-3.5 15-18.8 8.1-25-1.4-1-6-5.1-4.7-10.3.7-3 4.1-6.8 7.5-5.2 4.6 2.1.8 5.3-.6 2.8-1.5-2.6-4.6 1.7-4.1 3.7 1.1 5 8.5 5 8 13.8-.2 3 3.2 2.6 4.3 1 2.4-3.5 3.8-2.6 3.8-.8-.3 6.6-8.6 1.8-9.9 8.2-1.6 8-2 15.1-6.7 21.3-6 8-11.5 17.5-21.2 15-4.5-1-12.2-3.3-12-8.5.3-4.3 1.9.8 7.1 3.7 8 4.4 14.2-5.6 21.6-9.3 3.7-1.8 5.8-5.7 6-8.5.2-1.2-.5-4.4-3-1.2-2.7 3.3-2.9 1.5-4.4 3-1 .8.8 3.3 3 0 1-1.3 2.3.9-.4 2.6-2 1.3-5.5-2.4-9.1-.4" paint-order="markers fill stroke"/><path style="marker:none" fill="none" d="M933.2-280c-1 .5-1.5 1.8-.6 1.8s1.1-1.9.6-1.9c-.4 0 0 0 0 0z" paint-order="markers fill stroke"/></g><path d="M900.5-312.8c-.5 0-.9.2-.4 1.1 0 0 3 4 0 5.2-10 4-16 13.6-10.9 24.7 1.4 2.8 1 4-.6 2.1-1.4-1.6-3.1-6-2.9-8.5.3-2.3-1.7-.9-1.6 3 .2 3.7 2 8.8 9 11.3 7 2.6 9.2 11.7 15 10.1a7.6 7.6 0 0 0 3.5-2.5l1-7.2c-2.5.6-9.8 1.8-5.6 4.8 3.3 2.2-.2 2.9-2.4 2-3-1.4-5.8-6.5-6.7-7.3-1.4-1.2-2.7-3.4.2-2.3 3 1.1 6.5.7 7.9 0 1.3-.7 2.1-1.3-1.7-1.2a8 8 0 0 1-8-5.5c-1.5-4.5.2-8.3 3-8.1.8 0 1.8-1.2-.6-1.8-1.3-.3-4 .1-5 3.8-.4 1.7-1.6 3.6-1.8.5-.2-5.2 1-13.4 8.8-14.8 7.4-1.4 3.7-7.2 1-9-.3-.3-.8-.4-1.2-.4zm-8.4 29.4l.6.7c1.5 2.1 3.8 4.6 1 3.6-1.5-1.8-2.1-4.3-1.6-4.3z" style="marker:none" fill="#85929a" stroke="#000" stroke-linecap="round" stroke-linejoin="round" stroke-opacity=".9" stroke-width=".7" paint-order="markers fill stroke"/><path d="M911.9-255.8c.2-1.6.4-2.8.7-3.4-1.5-.7-1-9.5.3-10.3v-7.4c-.2-1.6-.5-1.9-2-2.4-1.4-.6-9-3-7.6-15.4.7-2.8 2.1-5.1 2.7-.8.6 4.4 1.3 7.7 4.3 9.9 7.2 5.2 17.2-3.7 13-13.2-4.1-8.8 2.5-7 4.5-1.5 3.8 11-1.2 17.3-7.3 20.5-1.2.6-2.4 2.7-2.4 4.6 0 0 .8 7-1 9 1.5-1.8 1 3.4 1.1 6m.4 7.4c.3 2.8.7 7.9 0 12 .3 3.9.5 7.7.5 11.3m-.2 4.8l-.1 1.7c.4.4 1 .6 0 2.5v4.3c0 4.2-.6 9.6-3 9-1.9-.5-4-2.2-4-6.2 0 0-.8-1.2-.2-2.4-.6-.4-1.2-3.6-.1-9.6m-.7-2.5c-.2-2.8.3-8.4 1.2-13.2 0 0-.5-1.7 0-3.2a44 44 0 0 1-.3-6.6" style="marker:none" fill="#40484d" stroke="#000" stroke-linecap="round" stroke-linejoin="round" stroke-opacity=".9" paint-order="markers fill stroke"/><path d="M924.1-215.9c.8.4 2.7 1 2.8 2.1.3 2.1-3.3 3.2-4.5 4.4-.4.3.5.5.7.5 5.6 4.5-11.9 7.4-13 7.2-1.3-.2-3 1 .3 1.5 5.7.7 9.3-1 16.4-3.8 7.2-2.8-.7-5.2-.7-5.2s5-2.4 5.8-5.3c.7-3-5-3.1-6.6-3.1-1.6 0-2.6 1.2-1.2 1.7z" style="marker:none" fill="#95a0a7" stroke="#000" stroke-linecap="round" stroke-linejoin="round" stroke-opacity=".9" stroke-width=".7" paint-order="markers fill stroke"/><path d="M915.1-283.5c2-.3 3.5-.7 5-1.7.8-1 2.7-1.4 4.4-6.9 1.2-3.8-1.7-9.2-1.7-9.2-1.2-3 .7-4.9 3-1.3 3.2 4.7 4.7 13.3-1.1 19-2.3 2.2-7.1 3.8-7.2 8.1 0 2 1 6.5-.8 9.2 1.7-1.9 1 6.3 1 6.4l-3.1 2.2" style="marker:none" fill="#a0a8ae" paint-order="markers fill stroke"/><g fill="none" stroke="#000" stroke-linecap="round" stroke-linejoin="round" stroke-opacity=".9" stroke-width=".5"><path d="M918-252.5c-.6 3.2-2.2 8.6-5.8 11.5M915.7-251.5c-1 2.6-2 5.3-3.3 7M918.5-240.6c-.9 6-2.9 10.1-4.8 12.5M918.8-223.3s-4.8 8-7.2 7.5M918.7-220.3s-2.7 7.2-7 6.9M911.4-224.6s.9.8 2.4-.5m2.5-3.5a46 46 0 0 0 2.7-7.3M923.4-304.7c-.3 1.5-.3 1.8 1.1 4.4 1.4 2.7 2.9 7 1.8 10-1 3-.5 6.5-6.6 9.2-6.1 2.7-6.8 6-6.8 6" style="marker:none" paint-order="markers fill stroke"/><path d="M925.3-303.7c.1 1.6.7 3.7 1.3 5.6.7 2 2.3 6.3.8 10.2-1.5 3.9-2.5 5-2.5 5M921.5-286.8c1.2 3.4-4.3 5.9-10 3.6-3-1.2-4.8 1-4.8 1M905.7-283.3c1.1-.8 3-2.5 8.1-.9M912.8-269.5s3.2-1 5.3-5.7M912.6-259.2c1.3 1.2 2.6-4 4.9-7.8M913-271.8s1.1 1.3 5.4-5.3" style="marker:none" paint-order="markers fill stroke"/></g><path style="marker:none" fill="#95a0a7" stroke="#000" stroke-linecap="round" stroke-linejoin="round" stroke-opacity=".9" stroke-width=".7" d="M943-271.8c-2.2 0-1.3 10.8-1 11.7 3 18.5-18.3 32-31.3 32.2-1.4 0-9.1-1.4-8-3.7.9-1.8 6.5-2.6 8.4-3.6v-3.1c-2.3-.6-14.6 3.8-13.4 6.3.9 1.7 4.7 2 4.4 3.2-1.8 3 8.5 2.8 12.7 3.9 3.4.9 6.6-.5 10-1 11.5-2 17.3-14.4 19.8-24.4.6-2.4-1.4-7.8-.8-10.1.7-2.8 2.3-8.8.1-10.9-.3-.4-.6-.5-.9-.5zm-8 37.3c.8 0-1.4 2.8-3.5 4a24.1 24.1 0 0 1-7.2 2.1c2.5-1.1 4.5-1.5 8.8-4.9 1-.8 1.7-1.1 2-1.2z" paint-order="markers fill stroke"/></g><g stroke-width="1.7" color="#000"><path style="isolation:auto;mix-blend-mode:normal;marker:none" fill="#7ed2ff" stroke="#000" stroke-linecap="round" stroke-linejoin="round" stroke-width="2" d="M252.8 307.3L236.2 280l15.9-27 15 27z" overflow="visible" transform="matrix(.66167 .00814 -.01221 .52045 109.6 -99.3)"/><path style="isolation:auto;mix-blend-mode:normal;marker:none" fill="#0489d0" d="M273.5 61.4l8.5-12.6h-8.3z" overflow="visible"/><path style="isolation:auto;mix-blend-mode:normal;marker:none" fill="#05a8ff" stroke="#026699" stroke-linecap="round" stroke-linejoin="round" d="M252 256l.7 48.2" overflow="visible" transform="matrix(.66167 .00814 -.01221 .52045 109.6 -99.3)"/><path style="isolation:auto;mix-blend-mode:normal;marker:none" fill="#1c7497" d="M273.7 56.2l3.8-7-3.3-.2z" overflow="visible"/><path style="isolation:auto;mix-blend-mode:normal;marker:none" fill="#05a8ff" stroke="#026699" stroke-linecap="round" stroke-linejoin="round" d="M238.3 279.8l26.7.2" overflow="visible" transform="matrix(.66167 .00814 -.01221 .52045 109.6 -99.3)"/><path d="M272.2 37.6l-6.8 10 6.6-.2z" style="isolation:auto;mix-blend-mode:normal;marker:none" fill="#fff" fill-opacity=".7" overflow="visible"/><path d="M271.7 57.3l-5-7.1 4.8-.2z" style="isolation:auto;mix-blend-mode:normal;marker:none" fill="#41b6f6" overflow="visible"/><path d="M270.2 33.4l-.8 8.6-7.7.2 7.7.5.3 10.7 1-10.8 8-.3-8.1-.5z" style="isolation:auto;mix-blend-mode:normal;marker:none" fill="#fff" overflow="visible"/></g></g></svg>