<svg xmlns="http://www.w3.org/2000/svg" viewBox="0 0 61 232.6"><path fill="#83765b" d="M37 191.9l-.4 3.8c1 1 2.3 1.3 0 5.7l.2 9.7c0 9.7-1.6 22-6.9 20.7-4.4-1-9.5-5-9.4-14.2 0 0-1.7-2.8-.5-5.4-1.2-1-2.7-8.2-.2-21.8l-1.4-5.8c-.7-6.3.6-19 2.7-30 0 0-1.2-4 .1-7.2-.6-4.5-1-9.6-1-15.1l.6-11.3a23 23 0 0 1 1.6-7.6c-3.4-1.7-2.4-21.6.6-23.6.3-9.7.4-16.1.3-16.9-.7-3.5-1.3-4.1-4.7-5.4-3.3-1.4-20.8-6.6-17.5-35 1.6-6.4 4.9-11.7 6.2-1.8 1.4 10 3 17.6 9.8 22.5 16.5 11.8 39.5-8.5 30-30-9.6-20.1 5.7-15.8 10.1-3.5 8.9 25-2.6 39.5-16.6 46.7-2.9 1.5-5.6 6.3-5.6 10.5 0 0 1.8 15.7-2 20.4 3.3-4.1 2.3 7.8 2.3 13.9l.9 16.6c.7 6.5 1.5 18-.2 27.5.8 8.7 1.4 17.4 1.4 25.7z" paint-order="markers fill stroke" style="marker:none"/><path fill="#413b2f" d="M46.9 9.3c-3.2 0-4.6 3.9 0 14 7.5 16.4-4.4 32.2-17.8 33.3v175l.8.2c5.3 1.3 6.9-11 6.9-20.7l-.1-9.7c2.2-4.4.8-4.7-.1-5.7l.4-3.8.4-10.9c0-8.3-.6-17-1.4-25.7 1.7-9.4.9-21 .1-27.5l-.8-16.6c0-6 1-18-2.4-13.9 4-4.7 2-20.4 2-20.4 0-4.2 2.8-9 5.7-10.5 14-7.2 25.5-21.8 16.6-46.7C55 13.6 50 9.4 46.9 9.3z" paint-order="markers fill stroke" style="marker:none"/><path fill="none" stroke="#000" stroke-linecap="round" stroke-linejoin="round" stroke-opacity=".9" stroke-width="1.4" d="M37 191.9l-.4 3.8c1 1 2.3 1.3 0 5.7l.2 9.7c0 9.7-1.6 22-6.9 20.7-4.4-1-9.5-5-9.4-14.2 0 0-1.7-2.8-.5-5.4-1.2-1-2.7-8.2-.2-21.8l-1.4-5.8c-.7-6.3.6-19 2.7-30 0 0-1.2-4 .1-7.2-.6-4.5-1-9.6-1-15.1l.6-11.3a23 23 0 0 1 1.6-7.6c-3.4-1.7-2.4-21.6.6-23.6.3-9.7.4-16.1.3-16.9-.7-3.5-1.3-4.1-4.7-5.4-3.3-1.4-20.8-6.6-17.5-35 1.6-6.4 4.9-11.7 6.2-1.8 1.4 10 3 17.6 9.8 22.5 16.5 11.8 39.5-8.5 30-30-9.6-20.1 5.7-15.8 10.1-3.5 8.9 25-2.6 39.5-16.6 46.7-2.9 1.5-5.6 6.3-5.6 10.5 0 0 1.8 15.7-2 20.4 3.3-4.1 2.3 7.8 2.3 13.9l.9 16.6c.7 6.5 1.5 18-.2 27.5.8 8.7 1.4 17.4 1.4 25.7z" paint-order="markers fill stroke" style="marker:none"/><g fill="none" stroke="#000" stroke-linecap="round" stroke-linejoin="round" stroke-opacity=".9"><path d="M35.5 118.7C33.9 132 24.8 142.8 21.9 147M36 127c-1.4 7-6.1 21.2-14.6 27.8M36 155.6c-2 13.8-8.1 30.7-16.2 34.8M36.6 195.2s-11 18-16.6 17M36.5 201.9s-6.3 16.3-16 15.7" paint-order="markers fill stroke" style="marker:none"/><path d="M19.7 192s2 2 5.4-1a25 25 0 0 0 5.7-8c2-3.9 4-9.2 6.3-16.5M47.1 9.7c-.5 3.4-.5 4 2.7 10.2 3.2 6 6.5 16 4 22.6-2.4 6.8-1 14.7-15.1 21C24.7 69.6 23.2 77 23.2 77" paint-order="markers fill stroke" style="marker:none"/><path d="M51.6 12c.2 3.7 1.5 8.5 3 12.8C56.2 29 60 39 56.4 48c-3.4 8.9-5.8 11.3-5.8 11.3M42.8 50.5c2.8 7.8-10 13.4-23 8.2C13 55.9 9 61 9 61M6.7 58.4c2.4-1.7 6.8-5.7 18.5-2M23 90s7.2-2.3 12-13.1M22.4 113.4c3 2.8 5.4-7.3 10.5-16M23.5 84.7s2.4 3 12.2-12" paint-order="markers fill stroke" style="marker:none"/></g><g stroke-width="1.1" color="#000"><path fill="#7ed2ff" stroke="#000" stroke-linecap="round" stroke-linejoin="round" stroke-width="1.5" d="M252.8 307.3L236.2 280l15.9-27 15 27z" overflow="visible" style="isolation:auto;mix-blend-mode:normal;marker:none" transform="matrix(1 0 0 .8505 -225.2 -213.6)"/><path fill="#05a8ff" stroke="#026699" stroke-linecap="round" stroke-linejoin="round" d="M252 255.2l.8 49.6M237.5 280h28.2" overflow="visible" style="isolation:auto;mix-blend-mode:normal;marker:none" transform="matrix(1 0 0 .8505 -225.2 -213.6)"/><path fill="#0489d0" d="M28 45.7a2386 2386 0 0 0 12.5-20.8H27.9z" overflow="visible" style="isolation:auto;mix-blend-mode:normal;marker:none"/><path fill="#fff" d="M25.3 6.7l-9.9 16.6 10-.5z" overflow="visible" style="isolation:auto;mix-blend-mode:normal;marker:none"/><path fill="#41b6f6" d="M25.3 39l-7.8-11.5 7.2-.3z" overflow="visible" style="isolation:auto;mix-blend-mode:normal;marker:none"/><path fill="#1c7497" d="M28.3 37.2l5.4-11.5-5-.3z" overflow="visible" style="isolation:auto;mix-blend-mode:normal;marker:none"/><path fill="#fff" d="M22.2 0l-1 14-11.7.6 11.8.5.7 17.6 1.1-17.6 12.1-.7-12.2-.7z" overflow="visible" style="isolation:auto;mix-blend-mode:normal;marker:none"/></g></svg>